<?xml version="1.0" encoding="utf-8"?>
<!-- Generator: Adobe Illustrator 19.0.0, SVG Export Plug-In . SVG Version: 6.00 Build 0)  -->
<svg version="1.1" xmlns="http://www.w3.org/2000/svg" xmlns:xlink="http://www.w3.org/1999/xlink" x="0px" y="0px"
	 viewBox="750 19 2500 963" style="enable-background:new 750 19 2500 963;" xml:space="preserve">
<style type="text/css">
	.st0{display:none;}
	.st1{display:inline;fill:#00B45E;}
	.st2{fill:#00B45E;}


	.st1{
		stroke-dasharray:2000;
		animation: dash 4s linear forwards;
	}

	@-webkit-keyframes dash{
		from{
		stroke-dashoffset:2000;
		}
		to{
		
		stroke-dashoffset:0;
		}
	}
</style>
<g id="Layer_1" class="st0">
	<path class="st1" d="M2739.6,322.3V19h62.2v260.7C2784.5,288.3,2761.1,304.6,2739.6,322.3z M2631.5,413.7
		c19.1-23,38.7-45.9,62.2-65.5V19h-62.2V413.7z M1911,654.8c0,80.8,32.1,157.9,90.9,216.7c58.4,58.4,135.4,90.9,216.7,90.9
		c34.4,0,69.8-7.2,94.7-19.6v-62.2c-29.2,12.4-64.6,19.6-94.7,19.6c-133,0-244.9-111.9-244.9-244.9v-56
		c0-133,112.4-244.9,244.9-244.9c66,0,127.7,25.4,173.7,71.3c45.9,45.9,71.3,107.6,71.3,173.7v363.6h62.2V587.3
		c-3.8-79.4-37.8-153.6-95.2-209.1c-57.9-55.5-133-86.1-211.9-86.1c-80.8,0-157.9,32.1-216.7,90.9c-58.4,58.4-90.9,135.4-90.9,216.7
		V654.8L1911,654.8z M2841.9,505.5c28.2-28.2,64.6-44,100.5-44c77,0,136.8,60.3,136.8,136.8v56c0,77-60.3,136.8-136.8,136.8
		c-37.3,0-73.2-20.6-101.4-57.4c-24.9-32.5-41.1-77-43.5-116.7l-50.2,62.2c10,46.9,34.4,92.3,69.4,123.9
		c35.9,32.5,80.8,50.7,125.8,50.7c110,0,199.5-89.5,199.5-199v-56c0-52.1-21-101.9-59.3-139.7c-38.3-38.3-88-59.3-140.2-59.3
		c-33,0-85.2,12-147.3,67.9c-16.7,16.7-56,56-79.9,83.7c-40.2,44-98.1,109.5-147.8,176v97.1c55-70.8,86.6-110.5,138.7-170.3
		C2752,599.8,2809.4,534.2,2841.9,505.5L2841.9,505.5z M1372.4,388.3v-73.7c-56.4-30.1-117.7-43.5-199-43.5
		c-83.2,0-162.2,30.6-222,85.6c-60.3,55.5-93.3,128.2-93.3,205.7v20.1c0,160.7,128.7,291.3,287.5,291.3
		c128.7,0,181.8-42.1,195.2-55.5v-187h-210.5v62.2h152.1v93.8h-0.5c-19.6,7.7-60.3,23.9-136.3,23.9c-60.3,0-117.2-23.4-159.3-66.5
		c-42.6-43.1-65.5-100.5-65.5-162.6V562c0-123.9,115.8-229.1,253.1-229.1C1268.1,333.3,1324.5,349.1,1372.4,388.3L1372.4,388.3z
		 M1825.9,461.5c23.4,0,43.5,3.8,59.8,11.5c7.7-19.1,15.8-35.4,27.3-54.5c-16.7-12-57.4-19.6-87.1-19.6c-113.4,0-199,85.6-199,199.5
		v363.6h62.2V598.3C1689.1,518,1745,461.5,1825.9,461.5L1825.9,461.5z M750,562.4v20.1c0,108.1,41.1,208.6,115.3,283.7
		c74.1,74.6,173.7,115.8,279.9,115.8c85.6,0,161.2-19.1,225.3-57.4c52.6-31.6,76.1-63.1,78-66V523.7h-318.1v62.2h255.9v254
		c-30.1,30.1-101.4,80.4-240.6,80.4c-90.9,0-175.1-34.9-237.3-98.1c-61.7-62.7-95.7-147.8-95.7-239.2v-20.1
		c0-86.6,38.7-172.7,106.7-236.3c69.4-65.1,159.8-100.9,254.5-100.9c88.5,0,149.7,13.4,199,43.5v-70.3
		c-51.7-22-113.4-31.6-199.5-31.6C943.7,167.3,750,348.1,750,562.4z M2417.1,961.9V598.3c0-111.9-87.5-199.5-199.5-199.5
		c-52.1,0-101.9,21-140.2,59.3c-38.3,38.3-59.3,88-59.3,139.7v56c0,108.1,91.4,199,199,199c29.7,0,69.8-7.2,94.7-27.7v-64.6
		c-24.4,19.6-59.3,31.1-94.7,31.1c-76.5,0-136.8-60.3-136.8-136.8v-56c0-77,60.3-136.8,136.8-136.8c77,0,136.8,60.3,136.8,136.8
		v363.6h63.1L2417.1,961.9z M1825.9,353.4c42.1,0,78.9,9.1,111.9,27.7c15.3-19.6,31.1-34.9,43.1-46.9
		c-34.9-26.8-94.2-43.1-154.5-43.1c-86.6,0-165,31.1-221,88c-55.5,56-86.1,133.9-86.1,219.6v363.6h62.2V598.8
		C1580.9,454.3,1681.4,353.4,1825.9,353.4L1825.9,353.4z M3159.1,382.1c-58.4-58.4-135.4-90.9-216.7-90.9c-59.3,0-118.6,22-151.6,44
		c-67.9,45-123.4,94.2-223.9,223.9v93.3c85.2-111,165.5-198,226.8-246.4c40.2-32.1,97.1-52.1,148.8-52.1
		c133,0,244.9,112.4,244.9,244.9v56c0,65.5-25.8,127.2-72.7,173.7c-46.4,45.9-107.6,71.3-172.2,71.3c-109.1,0-205.2-75.1-231.1-177
		l-44,53.1c32.1,107.2,147.8,186.1,275.1,186.1c81.3,0,157.9-32.5,216.7-90.9c58.4-58.8,90.9-135.4,90.9-216.7v-56
		C3250,517.5,3217.5,440.5,3159.1,382.1L3159.1,382.1z M750,562.4v20.1c0,108.1,41.1,208.6,115.3,283.7
		c74.1,74.6,173.7,115.8,279.9,115.8c85.6,0,161.2-19.1,225.3-57.4c52.6-31.6,76.1-63.1,78-66V523.7h-318.1v62.2h255.9v254
		c-30.1,30.1-101.4,80.4-240.6,80.4c-90.9,0-175.1-34.9-237.3-98.1c-61.7-62.7-95.7-147.8-95.7-239.2v-20.1
		c0-86.6,38.7-172.7,106.7-236.3c69.4-65.1,159.8-100.9,254.5-100.9c88.5,0,149.7,13.4,199,43.5v-70.3
		c-51.7-22-113.4-31.6-199.5-31.6C943.7,167.3,750,348.1,750,562.4z M1372.4,388.3v-73.7c-56.4-30.1-117.7-43.5-199-43.5
		c-83.2,0-162.2,30.6-222,85.6c-60.3,55.5-93.3,128.2-93.3,205.7v20.1c0,160.7,128.7,291.3,287.5,291.3
		c128.7,0,181.8-42.1,195.2-55.5v-187h-210.5v62.2h152.1v93.8h-0.5c-19.6,7.7-60.3,23.9-136.3,23.9c-60.3,0-117.2-23.4-159.3-66.5
		c-42.6-43.1-65.5-100.5-65.5-162.6V562c0-123.9,115.8-229.1,253.1-229.1C1268.1,333.3,1324.5,349.1,1372.4,388.3L1372.4,388.3z"/>
</g>
<g id="Layer_2" class="st0">
	<path class="st1" d="M2739.6,322.3V19h62.2v260.7C2784.5,288.3,2761.1,304.6,2739.6,322.3z M2631.5,413.7
		c19.1-23,38.7-45.9,62.2-65.5V19h-62.2V413.7z M1911,654.8c0,80.8,32.1,157.9,90.9,216.7c58.4,58.4,135.4,90.9,216.7,90.9
		c34.4,0,69.8-7.2,94.7-19.6v-62.2c-29.2,12.4-64.6,19.6-94.7,19.6c-133,0-244.9-111.9-244.9-244.9v-56
		c0-133,112.4-244.9,244.9-244.9c66,0,127.7,25.4,173.7,71.3c45.9,45.9,71.3,107.6,71.3,173.7v363.6h62.2V587.3
		c-3.8-79.4-37.8-153.6-95.2-209.1c-57.9-55.5-133-86.1-211.9-86.1c-80.8,0-157.9,32.1-216.7,90.9c-58.4,58.4-90.9,135.4-90.9,216.7
		V654.8L1911,654.8z M2841.9,505.5c28.2-28.2,64.6-44,100.5-44c77,0,136.8,60.3,136.8,136.8v56c0,77-60.3,136.8-136.8,136.8
		c-37.3,0-73.2-20.6-101.4-57.4c-24.9-32.5-41.1-77-43.5-116.7l-50.2,62.2c10,46.9,34.4,92.3,69.4,123.9
		c35.9,32.5,80.8,50.7,125.8,50.7c110,0,199.5-89.5,199.5-199v-56c0-52.1-21-101.9-59.3-139.7c-38.3-38.3-88-59.3-140.2-59.3
		c-33,0-85.2,12-147.3,67.9c-16.7,16.7-56,56-79.9,83.7c-40.2,44-98.1,109.5-147.8,176v97.1c55-70.8,86.6-110.5,138.7-170.3
		C2752,599.8,2809.4,534.2,2841.9,505.5L2841.9,505.5z M1372.4,388.3v-73.7c-56.4-30.1-117.7-43.5-199-43.5
		c-83.2,0-162.2,30.6-222,85.6c-60.3,55.5-93.3,128.2-93.3,205.7v20.1c0,160.7,128.7,291.3,287.5,291.3
		c128.7,0,181.8-42.1,195.2-55.5v-187h-210.5v62.2h152.1v93.8h-0.5c-19.6,7.7-60.3,23.9-136.3,23.9c-60.3,0-117.2-23.4-159.3-66.5
		c-42.6-43.1-65.5-100.5-65.5-162.6V562c0-123.9,115.8-229.1,253.1-229.1C1268.1,333.3,1324.5,349.1,1372.4,388.3L1372.4,388.3z
		 M1825.9,461.5c23.4,0,43.5,3.8,59.8,11.5c7.7-19.1,15.8-35.4,27.3-54.5c-16.7-12-57.4-19.6-87.1-19.6c-113.4,0-199,85.6-199,199.5
		v363.6h62.2V598.3C1689.1,518,1745,461.5,1825.9,461.5L1825.9,461.5z M750,562.4v20.1c0,108.1,41.1,208.6,115.3,283.7
		c74.1,74.6,173.7,115.8,279.9,115.8c85.6,0,161.2-19.1,225.3-57.4c52.6-31.6,76.1-63.1,78-66V523.7h-318.1v62.2h255.9v254
		c-30.1,30.1-101.4,80.4-240.6,80.4c-90.9,0-175.1-34.9-237.3-98.1c-61.7-62.7-95.7-147.8-95.7-239.2v-20.1
		c0-86.6,38.7-172.7,106.7-236.3c69.4-65.1,159.8-100.9,254.5-100.9c88.5,0,149.7,13.4,199,43.5v-70.3
		c-51.7-22-113.4-31.6-199.5-31.6C943.7,167.3,750,348.1,750,562.4z M2417.1,961.9V598.3c0-111.9-87.5-199.5-199.5-199.5
		c-52.1,0-101.9,21-140.2,59.3c-38.3,38.3-59.3,88-59.3,139.7v56c0,108.1,91.4,199,199,199c29.7,0,69.8-7.2,94.7-27.7v-64.6
		c-24.4,19.6-59.3,31.1-94.7,31.1c-76.5,0-136.8-60.3-136.8-136.8v-56c0-77,60.3-136.8,136.8-136.8c77,0,136.8,60.3,136.8,136.8
		v363.6h63.1L2417.1,961.9z M1825.9,353.4c42.1,0,78.9,9.1,111.9,27.7c15.3-19.6,31.1-34.9,43.1-46.9
		c-34.9-26.8-94.2-43.1-154.5-43.1c-86.6,0-165,31.1-221,88c-55.5,56-86.1,133.9-86.1,219.6v363.6h62.2V598.8
		C1580.9,454.3,1681.4,353.4,1825.9,353.4L1825.9,353.4z M3159.1,382.1c-58.4-58.4-135.4-90.9-216.7-90.9c-59.3,0-118.6,22-151.6,44
		c-67.9,45-123.4,94.2-223.9,223.9v93.3c85.2-111,165.5-198,226.8-246.4c40.2-32.1,97.1-52.1,148.8-52.1
		c133,0,244.9,112.4,244.9,244.9v56c0,65.5-25.8,127.2-72.7,173.7c-46.4,45.9-107.6,71.3-172.2,71.3c-109.1,0-205.2-75.1-231.1-177
		l-44,53.1c32.1,107.2,147.8,186.1,275.1,186.1c81.3,0,157.9-32.5,216.7-90.9c58.4-58.8,90.9-135.4,90.9-216.7v-56
		C3250,517.5,3217.5,440.5,3159.1,382.1L3159.1,382.1z M750,562.4v20.1c0,108.1,41.1,208.6,115.3,283.7
		c74.1,74.6,173.7,115.8,279.9,115.8c85.6,0,161.2-19.1,225.3-57.4c52.6-31.6,76.1-63.1,78-66V523.7h-318.1v62.2h255.9v254
		c-30.1,30.1-101.4,80.4-240.6,80.4c-90.9,0-175.1-34.9-237.3-98.1c-61.7-62.7-95.7-147.8-95.7-239.2v-20.1
		c0-86.6,38.7-172.7,106.7-236.3c69.4-65.1,159.8-100.9,254.5-100.9c88.5,0,149.7,13.4,199,43.5v-70.3
		c-51.7-22-113.4-31.6-199.5-31.6C943.7,167.3,750,348.1,750,562.4z M1372.4,388.3v-73.7c-56.4-30.1-117.7-43.5-199-43.5
		c-83.2,0-162.2,30.6-222,85.6c-60.3,55.5-93.3,128.2-93.3,205.7v20.1c0,160.7,128.7,291.3,287.5,291.3
		c128.7,0,181.8-42.1,195.2-55.5v-187h-210.5v62.2h152.1v93.8h-0.5c-19.6,7.7-60.3,23.9-136.3,23.9c-60.3,0-117.2-23.4-159.3-66.5
		c-42.6-43.1-65.5-100.5-65.5-162.6V562c0-123.9,115.8-229.1,253.1-229.1C1268.1,333.3,1324.5,349.1,1372.4,388.3L1372.4,388.3z"/>
</g>
<g id="Layer_12">
	<path class="st2" d="M2841.9,505.5c28.2-28.2,64.6-44,100.5-44c77,0,136.8,60.3,136.8,136.8v56c0,77-60.3,136.8-136.8,136.8
		c-37.3,0-73.2-20.6-101.4-57.4c-24.9-32.5-41.1-77-43.5-116.7l-50.2,62.2c10,46.9,34.4,92.3,69.4,123.9
		c35.9,32.5,80.8,50.7,125.8,50.7c110,0,199.5-89.5,199.5-199v-56c0-52.1-21-101.9-59.3-139.7c-38.3-38.3-88-59.3-140.2-59.3
		c-33,0-85.2,12-147.3,67.9c-16.7,16.7-56,56-79.9,83.7c-40.2,44-98.1,109.5-147.8,176v97.1c55-70.8,86.6-110.5,138.7-170.3
		C2752,599.8,2809.4,534.2,2841.9,505.5L2841.9,505.5z"/>
</g>
<g id="Layer_11">
	<path class="st2" d="M3159.1,382.1c-58.4-58.4-135.4-90.9-216.7-90.9c-59.3,0-118.6,22-151.6,44c-67.9,45-123.4,94.2-223.9,223.9
		v93.3c85.2-111,165.5-198,226.8-246.4c40.2-32.1,97.1-52.1,148.8-52.1c133,0,244.9,112.4,244.9,244.9v56
		c0,65.5-25.8,127.2-72.7,173.7c-46.4,45.9-107.6,71.3-172.2,71.3c-109.1,0-205.2-75.1-231.1-177l-44,53.1
		c32.1,107.2,147.8,186.1,275.1,186.1c81.3,0,157.9-32.5,216.7-90.9c58.4-58.8,90.9-135.4,90.9-216.7v-56
		C3250,517.5,3217.5,440.5,3159.1,382.1L3159.1,382.1z"/>
</g>
<g id="Layer_10">
	<path class="st2" d="M2739.6,322.3V19h62.2v260.7C2784.5,288.3,2761.1,304.6,2739.6,322.3z"/>
</g>
<g id="Layer_9">
	<path class="st2" d="M2631.5,413.7c19.1-23,38.7-45.9,62.2-65.5V19h-62.2V413.7z"/>
</g>
<g id="Layer_8">
	<path class="st2" d="M2417.1,961.9V598.3c0-111.9-87.5-199.5-199.5-199.5c-52.1,0-101.9,21-140.2,59.3
		c-38.3,38.3-59.3,88-59.3,139.7v56c0,108.1,91.4,199,199,199c29.7,0,69.8-7.2,94.7-27.7v-64.6c-24.4,19.6-59.3,31.1-94.7,31.1
		c-76.5,0-136.8-60.3-136.8-136.8v-56c0-77,60.3-136.8,136.8-136.8c77,0,136.8,60.3,136.8,136.8v363.6h63.1L2417.1,961.9z"/>
</g>
<g id="Layer_7">
	<path class="st2" d="M1911,654.8c0,80.8,32.1,157.9,90.9,216.7c58.4,58.4,135.4,90.9,216.7,90.9c34.4,0,69.8-7.2,94.7-19.6v-62.2
		c-29.2,12.4-64.6,19.6-94.7,19.6c-133,0-244.9-111.9-244.9-244.9v-56c0-133,112.4-244.9,244.9-244.9c66,0,127.7,25.4,173.7,71.3
		c45.9,45.9,71.3,107.6,71.3,173.7v363.6h62.2V587.3c-3.8-79.4-37.8-153.6-95.2-209.1c-57.9-55.5-133-86.1-211.9-86.1
		c-80.8,0-157.9,32.1-216.7,90.9c-58.4,58.4-90.9,135.4-90.9,216.7V654.8L1911,654.8z"/>
</g>
<g id="Layer_6">
	<path class="st2" d="M1825.9,461.5c23.4,0,43.5,3.8,59.8,11.5c7.7-19.1,15.8-35.4,27.3-54.5c-16.7-12-57.4-19.6-87.1-19.6
		c-113.4,0-199,85.6-199,199.5v363.6h62.2V598.3C1689.1,518,1745,461.5,1825.9,461.5L1825.9,461.5z"/>
</g>
<g id="Layer_5">
	<path class="st2" d="M1825.9,353.4c42.1,0,78.9,9.1,111.9,27.7c15.3-19.6,31.1-34.9,43.1-46.9c-34.9-26.8-94.2-43.1-154.5-43.1
		c-86.6,0-165,31.1-221,88c-55.5,56-86.1,133.9-86.1,219.6v363.6h62.2V598.8C1580.9,454.3,1681.4,353.4,1825.9,353.4L1825.9,353.4z"
		/>
</g>
<g id="Layer_4">
	<path class="st2" d="M1372.4,388.3v-73.7c-56.4-30.1-117.7-43.5-199-43.5c-83.2,0-162.2,30.6-222,85.6
		c-60.3,55.5-93.3,128.2-93.3,205.7v20.1c0,160.7,128.7,291.3,287.5,291.3c128.7,0,181.8-42.1,195.2-55.5v-187h-210.5v62.2h152.1
		v93.8h-0.5c-19.6,7.7-60.3,23.9-136.3,23.9c-60.3,0-117.2-23.4-159.3-66.5c-42.6-43.1-65.5-100.5-65.5-162.6V562
		c0-123.9,115.8-229.1,253.1-229.1C1268.1,333.3,1324.5,349.1,1372.4,388.3L1372.4,388.3z"/>
</g>
<g id="Layer_3">
	<path class="st2" d="M750,562.4v20.1c0,108.1,41.1,208.6,115.3,283.7c74.1,74.6,173.7,115.8,279.9,115.8
		c85.6,0,161.2-19.1,225.3-57.4c52.6-31.6,76.1-63.1,78-66V523.7h-318.1v62.2h255.9v254c-30.1,30.1-101.4,80.4-240.6,80.4
		c-90.9,0-175.1-34.9-237.3-98.1c-61.7-62.7-95.7-147.8-95.7-239.2v-20.1c0-86.6,38.7-172.7,106.7-236.3
		c69.4-65.1,159.8-100.9,254.5-100.9c88.5,0,149.7,13.4,199,43.5v-70.3c-51.7-22-113.4-31.6-199.5-31.6
		C943.7,167.3,750,348.1,750,562.4z"/>
</g>
</svg>
